<svg width="24" height="24" viewBox="0 0 24 24" fill="none" xmlns="http://www.w3.org/2000/svg">
<g id="ep:arrow-left-bold">
<path id="Vector" d="M16.0606 2.45401C16.3418 2.7353 16.4998 3.11676 16.4998 3.51451C16.4998 3.91226 16.3418 4.29372 16.0606 4.57501L8.63557 12L16.0606 19.425C16.3338 19.7079 16.485 20.0868 16.4816 20.4801C16.4782 20.8734 16.3204 21.2496 16.0423 21.5277C15.7642 21.8059 15.388 21.9636 14.9947 21.967C14.6014 21.9704 14.2225 21.8192 13.9396 21.546L5.45407 13.0605C5.17287 12.7792 5.01489 12.3978 5.01489 12C5.01489 11.6023 5.17287 11.2208 5.45407 10.9395L13.9396 2.45401C14.2209 2.1728 14.6023 2.01483 15.0001 2.01483C15.3978 2.01483 15.7793 2.1728 16.0606 2.45401Z" fill="#F2F2F2"/>
</g>
</svg>
