<svg width="24" height="25" viewBox="0 0 24 25" fill="none" xmlns="http://www.w3.org/2000/svg">
<g id="User Menu icons">
<path id="Vector" d="M21.986 9.95654C21.9837 9.92694 21.9811 9.89738 21.978 9.86786C21.8893 8.59732 21.3267 7.40768 20.4033 6.53804C19.4798 5.6684 18.2639 5.18321 17 5.17998H7C5.71833 5.17415 4.48398 5.66749 3.5547 6.55699C2.62542 7.44649 2.07307 8.66337 2.013 9.95352C2.003 10.0331 2 10.1158 2 10.2085V16.7687C2 17.7008 2.373 18.6108 3.022 19.2638C3.68081 19.9233 4.57134 20.2942 5.5 20.2957C7.3 20.2957 8.004 19.288 9 17.2725C9.146 16.9783 9.992 15.2571 12 15.2571C13.996 15.2571 14.853 16.9773 15 17.2725C16.004 19.288 16.7 20.2957 18.5 20.2957C19.425 20.2957 20.328 19.9198 20.976 19.2658C21.6305 18.6019 21.9985 17.7045 22 16.7687V10.2185C22 10.1228 21.996 10.0372 21.986 9.95654ZM7 12.2652C6.73366 12.2713 6.4688 12.2237 6.22098 12.1252C5.97315 12.0267 5.74735 11.8793 5.55683 11.6916C5.36631 11.504 5.21491 11.2798 5.11153 11.0324C5.00814 10.785 4.95485 10.5193 4.95478 10.2508C4.95472 9.98234 5.00788 9.71657 5.11114 9.4691C5.2144 9.22162 5.36569 8.99743 5.55611 8.80969C5.74654 8.62194 5.97227 8.47443 6.22005 8.3758C6.46782 8.27718 6.73266 8.22943 6.999 8.23537C7.52156 8.24701 8.01883 8.46434 8.38437 8.84084C8.74991 9.21733 8.95465 9.72307 8.95478 10.2498C8.95492 10.7765 8.75042 11.2824 8.38507 11.659C8.01972 12.0357 7.52256 12.2533 7 12.2652ZM17 7.22665C17.2652 7.22665 17.5196 7.33282 17.7071 7.5218C17.8946 7.71078 18 7.9671 18 8.23436C18 8.50162 17.8946 8.75794 17.7071 8.94692C17.5196 9.1359 17.2652 9.24207 17 9.24207C16.7348 9.24207 16.4804 9.1359 16.2929 8.94692C16.1054 8.75794 16 8.50162 16 8.23436C16 7.9671 16.1054 7.71078 16.2929 7.5218C16.4804 7.33282 16.7348 7.22665 17 7.22665ZM15 11.2575C14.7348 11.2575 14.4804 11.1513 14.2929 10.9623C14.1054 10.7734 14 10.517 14 10.2498C14 9.98252 14.1054 9.72621 14.2929 9.53722C14.4804 9.34824 14.7348 9.24207 15 9.24207C15.2652 9.24207 15.5196 9.34824 15.7071 9.53722C15.8946 9.72621 16 9.98252 16 10.2498C16 10.517 15.8946 10.7734 15.7071 10.9623C15.5196 11.1513 15.2652 11.2575 15 11.2575ZM17 13.2729C16.7348 13.2729 16.4804 13.1667 16.2929 12.9778C16.1054 12.7888 16 12.5325 16 12.2652C16 11.9979 16.1054 11.7416 16.2929 11.5526C16.4804 11.3637 16.7348 11.2575 17 11.2575C17.2652 11.2575 17.5196 11.3637 17.7071 11.5526C17.8946 11.7416 18 11.9979 18 12.2652C18 12.5325 17.8946 12.7888 17.7071 12.9778C17.5196 13.1667 17.2652 13.2729 17 13.2729ZM19 11.2575C18.7348 11.2575 18.4804 11.1513 18.2929 10.9623C18.1054 10.7734 18 10.517 18 10.2498C18 9.98252 18.1054 9.72621 18.2929 9.53722C18.4804 9.34824 18.7348 9.24207 19 9.24207C19.2652 9.24207 19.5196 9.34824 19.7071 9.53722C19.8946 9.72621 20 9.98252 20 10.2498C20 10.517 19.8946 10.7734 19.7071 10.9623C19.5196 11.1513 19.2652 11.2575 19 11.2575Z" fill="#F2F2F2"/>
</g>
</svg>
