<svg width="24" height="25" viewBox="0 0 24 25" fill="none" xmlns="http://www.w3.org/2000/svg">
<g id="User Menu icons">
<path id="Vector" d="M5 5.75322H11C11.55 5.75322 12 5.29975 12 4.74551C12 4.19126 11.55 3.73779 11 3.73779H5C3.9 3.73779 3 4.64473 3 5.75322V19.8612C3 20.9697 3.9 21.8766 5 21.8766H11C11.55 21.8766 12 21.4231 12 20.8689C12 20.3147 11.55 19.8612 11 19.8612H5V5.75322Z" fill="#F2F2F2"/>
<path id="Vector_2" d="M20.65 12.4545L17.86 9.64295C17.7905 9.57095 17.7012 9.5215 17.6036 9.50093C17.506 9.48036 17.4045 9.4896 17.3121 9.52748C17.2198 9.56535 17.1408 9.63014 17.0851 9.71354C17.0295 9.79694 16.9999 9.89517 17 9.99565V11.7995H10C9.45 11.7995 9 12.2529 9 12.8072C9 13.3614 9.45 13.8149 10 13.8149H17V15.6187C17 16.0722 17.54 16.2938 17.85 15.9714L20.64 13.1599C20.84 12.9684 20.84 12.6459 20.65 12.4545Z" fill="#F2F2F2"/>
</g>
</svg>
