<svg width="24" height="24" viewBox="0 0 24 24" fill="none" xmlns="http://www.w3.org/2000/svg">
<g id="User Menu icons">
<path id="Vector" d="M22.611 4.191C21.0154 2.32926 18.8878 1.00098 16.5145 0.384929C14.1412 -0.231118 11.6361 -0.105364 9.33643 0.745268C7.03676 1.5959 5.05286 3.13058 3.65173 5.14276C2.25059 7.15495 1.49948 9.54805 1.49948 12C1.49948 14.452 2.25059 16.8451 3.65173 18.8572C5.05286 20.8694 7.03676 22.4041 9.33643 23.2547C11.6361 24.1054 14.1412 24.2311 16.5145 23.6151C18.8878 22.999 21.0154 21.6707 22.611 19.809L15 12L22.611 4.191ZM16.5 2.826C16.7198 2.826 16.9375 2.8693 17.1406 2.95343C17.3437 3.03755 17.5282 3.16086 17.6837 3.31631C17.8391 3.47175 17.9624 3.65629 18.0466 3.85939C18.1307 4.06249 18.174 4.28017 18.174 4.5C18.174 4.71983 18.1307 4.93751 18.0466 5.14061C17.9624 5.34371 17.8391 5.52825 17.6837 5.6837C17.5282 5.83914 17.3437 5.96245 17.1406 6.04658C16.9375 6.1307 16.7198 6.174 16.5 6.174C16.056 6.174 15.6302 5.99763 15.3163 5.6837C15.0024 5.36976 14.826 4.94397 14.826 4.5C14.826 4.05603 15.0024 3.63024 15.3163 3.31631C15.6302 3.00237 16.056 2.826 16.5 2.826Z" fill="#F2F2F2"/>
</g>
</svg>
