<svg width="22" height="21" viewBox="0 0 22 21" fill="none" xmlns="http://www.w3.org/2000/svg">
<g id="Mask group">
<mask id="mask0_637_66" style="mask-type:luminance" maskUnits="userSpaceOnUse" x="0" y="0" width="22" height="21">
<g id="Group">
<g id="Group_2">
<path id="Vector" d="M1.341 10.4C1.29946 10.1813 1.30638 9.95609 1.36125 9.74041C1.41612 9.52474 1.5176 9.32395 1.65842 9.15238C1.79925 8.98082 1.97594 8.84272 2.17588 8.74797C2.37582 8.65321 2.59406 8.60414 2.815 8.60425H19.185C19.4059 8.60421 19.6241 8.65334 19.824 8.74813C20.0238 8.84292 20.2005 8.98102 20.3412 9.15258C20.482 9.32413 20.5834 9.5249 20.6383 9.74054C20.6931 9.95617 20.7 10.1814 20.6585 10.4L19.1275 18.4617C19.0619 18.807 18.879 19.1184 18.6101 19.3424C18.3413 19.5664 18.0034 19.689 17.6545 19.6891H4.3455C3.99657 19.6891 3.65853 19.5666 3.38958 19.3426C3.12063 19.1185 2.9376 18.807 2.872 18.4617L1.341 10.4Z" fill="white" stroke="white" stroke-width="2" stroke-linejoin="round"/>
<path id="Vector_2" d="M11 1.55029L6.5 8.60428H15.5L11 1.55029Z" stroke="white" stroke-width="2" stroke-linecap="round" stroke-linejoin="round"/>
<path id="Vector_3" d="M11 15.6581C11.8284 15.6581 12.5 14.9814 12.5 14.1466C12.5 13.3118 11.8284 12.635 11 12.635C10.1716 12.635 9.5 13.3118 9.5 14.1466C9.5 14.9814 10.1716 15.6581 11 15.6581Z" fill="black" stroke="black" stroke-width="2"/>
</g>
</g>
</mask>
<g mask="url(#mask0_637_66)">
<path id="Vector_4" d="M-1 -1.4729H23V22.7122H-1V-1.4729Z" fill="#F2F2F2"/>
</g>
</g>
</svg>
