<svg width="24" height="25" viewBox="0 0 24 25" fill="none" xmlns="http://www.w3.org/2000/svg">
<g id="User Menu icons">
<path id="Vector" d="M15.07 11.6658L14.17 12.5929C13.45 13.3185 13 13.9332 13 15.4447H11V14.9409C11 13.8223 11.45 12.8146 12.17 12.0891L13.41 10.8193C13.78 10.4566 14 9.95271 14 9.39846C14 8.86394 13.7893 8.35131 13.4142 7.97335C13.0391 7.59538 12.5304 7.38304 12 7.38304C11.4696 7.38304 10.9609 7.59538 10.5858 7.97335C10.2107 8.35131 10 8.86394 10 9.39846H8C8 8.32942 8.42143 7.30416 9.17157 6.54823C9.92172 5.79229 10.9391 5.36762 12 5.36762C13.0609 5.36762 14.0783 5.79229 14.8284 6.54823C15.5786 7.30416 16 8.32942 16 9.39846C15.9986 10.2482 15.6643 11.063 15.07 11.6658ZM13 19.4756H11V17.4602H13M12 2.34448C10.6868 2.34448 9.38642 2.60513 8.17317 3.11156C6.95991 3.61798 5.85752 4.36025 4.92893 5.296C3.05357 7.18583 2 9.74898 2 12.4216C2 15.0942 3.05357 17.6574 4.92893 19.5472C5.85752 20.4829 6.95991 21.2252 8.17317 21.7316C9.38642 22.2381 10.6868 22.4987 12 22.4987C14.6522 22.4987 17.1957 21.437 19.0711 19.5472C20.9464 17.6574 22 15.0942 22 12.4216C22 6.84895 17.5 2.34448 12 2.34448Z" fill="#F2F2F2"/>
</g>
</svg>
