<svg width="38" height="38" viewBox="0 0 38 38" fill="none" xmlns="http://www.w3.org/2000/svg">
<g id="uim:whatsapp">
<path id="Vector" d="M34.8175 10.3659C34.8043 9.68663 34.7499 9.00877 34.6544 8.33609C34.5407 7.73775 34.3474 7.15732 34.0797 6.61025C33.4936 5.45331 32.5541 4.51325 31.3975 3.9265C30.854 3.66005 30.2773 3.46729 29.6828 3.35334C29.0049 3.25593 28.3218 3.20041 27.6371 3.18709C27.3474 3.176 26.9721 3.17125 26.7979 3.17125L11.2053 3.1665C11.0311 3.1665 10.6559 3.17125 10.3661 3.18234C9.68681 3.19543 9.00894 3.24989 8.33627 3.34542C7.73793 3.45917 7.1575 3.65247 6.61044 3.92017C5.45356 4.50632 4.51352 5.44581 3.92669 6.60234C3.6603 7.14592 3.46755 7.72258 3.35352 8.31709C3.25568 8.99489 3.19963 9.67807 3.18569 10.3628C3.17619 10.6525 3.16985 11.0278 3.16985 11.2019L3.16669 26.7946C3.16669 26.9688 3.17144 27.344 3.18252 27.6337C3.19561 28.313 3.25007 28.9909 3.3456 29.6636C3.45937 30.2619 3.65267 30.8423 3.92035 31.3894C4.5065 32.5463 5.44599 33.4863 6.60252 34.0732C7.14612 34.3395 7.72277 34.5323 8.31727 34.6463C8.99509 34.7437 9.67828 34.7993 10.3629 34.8126C10.6527 34.8237 11.0279 34.8284 11.2021 34.8284L26.7948 34.8316C26.9689 34.8316 27.3442 34.8268 27.6339 34.8158C28.3132 34.8026 28.9911 34.7481 29.6638 34.6527C30.2621 34.5388 30.8425 34.3456 31.3896 34.0779C32.5471 33.492 33.4877 32.5525 34.0749 31.3958C34.3414 30.8522 34.5341 30.2755 34.6481 29.681C34.746 29.0032 34.802 28.32 34.8159 27.6353C34.8254 27.3456 34.8318 26.9703 34.8318 26.7962L34.8334 11.2051C34.8334 11.0309 34.8286 10.6557 34.8175 10.3659ZM19.3436 30.0151H19.3389C17.4542 30.0147 15.5996 29.5422 13.9444 28.6408L7.95944 30.2098L9.56177 24.3626C8.32115 22.2098 7.82544 19.7078 8.15149 17.2445C8.47754 14.7813 9.60714 12.4944 11.3651 10.7385C13.1231 8.98261 15.4113 7.85574 17.875 7.53262C20.3386 7.2095 22.84 7.70818 24.9913 8.95136C27.1427 10.1945 28.8238 12.1127 29.774 14.4086C30.7243 16.7044 30.8905 19.2496 30.2471 21.6496C29.6036 24.0495 28.1863 26.1701 26.2149 27.6826C24.2436 29.1951 21.8283 30.015 19.3436 30.0151Z" fill="#666666"/>
<path id="Vector_2" d="M19.3483 9.34338C17.6717 9.34289 16.0256 9.79158 14.5811 10.6428C13.1367 11.494 11.9466 12.7167 11.1348 14.1836C10.3229 15.6506 9.91888 17.3082 9.96469 18.9842C10.0105 20.6602 10.5045 22.2933 11.3953 23.7137L11.6185 24.0684L10.6701 27.5295L14.2215 26.5985L14.5635 26.8012C16.0092 27.6574 17.6586 28.1091 19.3388 28.109H19.3436C21.8323 28.1095 24.2192 27.1212 25.9793 25.3618C27.7393 23.6023 28.7284 21.2157 28.7288 18.727C28.7292 16.2383 27.741 13.8514 25.9815 12.0913C24.222 10.3312 21.8355 9.34222 19.3468 9.3418L19.3483 9.34338ZM24.8647 22.7542C24.6571 23.097 24.3809 23.393 24.0534 23.6238C23.7258 23.8546 23.3541 24.0152 22.9615 24.0953C22.3688 24.197 21.7605 24.159 21.185 23.9845C20.6392 23.8144 20.1028 23.6157 19.5779 23.3891C17.63 22.4116 15.9697 20.9444 14.7598 19.1315C14.0999 18.2923 13.6993 17.2787 13.6072 16.215C13.5996 15.776 13.6835 15.3402 13.8536 14.9354C14.0237 14.5306 14.2763 14.1656 14.5952 13.8638C14.6894 13.7563 14.8049 13.6694 14.9343 13.6086C15.0637 13.5479 15.2043 13.5145 15.3473 13.5107C15.5341 13.5107 15.7225 13.5107 15.8872 13.5202C16.0613 13.5281 16.2925 13.4537 16.5205 14.0047C16.758 14.5684 17.3217 15.957 17.3913 16.0979C17.4361 16.1718 17.4617 16.2556 17.4658 16.3419C17.4699 16.4281 17.4525 16.5141 17.4151 16.5919C17.3441 16.7613 17.2492 16.9196 17.1333 17.0621C16.9908 17.2268 16.8372 17.4295 16.7105 17.5561C16.568 17.697 16.4223 17.849 16.5854 18.1309C17.009 18.8561 17.5378 19.5146 18.1545 20.0847C18.8237 20.6796 19.5915 21.1533 20.4234 21.4844C20.7053 21.6269 20.8699 21.6015 21.0346 21.4131C21.1993 21.2247 21.7392 20.5898 21.9276 20.308C22.116 20.0261 22.3028 20.0736 22.5609 20.167C22.819 20.2605 24.2076 20.9429 24.4894 21.0854C24.7713 21.2279 24.9597 21.296 25.0293 21.4131C25.1066 21.8666 25.0493 22.3329 24.8647 22.7542Z" fill="#666666"/>
</g>
</svg>
