<svg width="24" height="24" viewBox="0 0 24 24" fill="none" xmlns="http://www.w3.org/2000/svg">
<g id="User Menu icons">
<path id="Vector" d="M1.43686 22.0365L4.03092 21.084L7.97264 20.1643L8.47795 21.0184L9.64983 21.7646L11.5876 21.511L12.8936 21.9052L14.7409 21.9709L16.4617 20.3434L18.6498 21.2481L20.4236 21.6751L23.1718 23.2096H0.828278L1.43686 22.0365ZM12.6212 12.5316L12.34 13.0004C12.8129 13.2863 13.3515 13.2999 13.8812 13.1509C14.1353 13.0764 14.3819 12.9788 14.6181 12.8593C14.6036 13.1537 14.6012 13.6365 14.6092 14.2323L13.727 14.0977L13.9079 19.4884L14.8323 19.4485C14.8647 19.8952 14.9003 20.3143 14.9387 20.6879L14.4362 21.1632L13.0258 21.1131L11.8169 20.7488L11.6528 20.6992L11.4831 20.7212L9.83311 20.9363L9.60389 20.7901C9.98404 19.0145 10.4219 15.0193 10.5184 14.1479C10.5601 13.8071 10.5759 13.4635 10.5653 13.1204L11.0289 12.8701L11.0617 12.5706L10.9211 12.2649H10.5048L10.2869 11.837L10.2011 11.8665C10.1633 11.8152 10.1221 11.7665 10.0778 11.7207L10.074 11.717L8.94904 10.5038L9.05967 10.2226L9.00436 9.89071L8.60545 9.78009L8.50842 9.31134L7.88264 9.35212L6.43186 7.78696C6.4567 7.58399 6.57248 7.32618 6.75529 7.12321C6.92873 6.92821 7.14248 6.80399 7.31217 6.76977L10.0778 9.69524L10.5226 9.38821L8.50279 5.21259C8.58389 5.02509 8.77045 4.83103 9.00576 4.70493C9.23264 4.58306 9.47967 4.54134 9.65029 4.56431L11.7831 8.88946L12.2987 8.72399L11.5351 4.08712C11.6608 3.96149 11.8942 3.84196 12.1445 3.80587C12.1996 3.79801 12.2552 3.79378 12.3109 3.79321H12.3658C12.5285 3.79514 12.6883 3.83682 12.8312 3.91462L13.5372 8.33587L14.0729 8.35227L14.9059 4.58306C15.182 4.80056 15.8078 5.32228 15.8078 5.32228L16.1476 5.21446L15.2279 9.40181H15.2308L15.1633 9.69759L15.1333 9.83259L15.5495 10.1035C16.2198 9.68821 16.8798 9.25977 17.4372 9.06431C17.8019 8.93774 18.1028 8.91431 18.3447 9.00946C18.5439 9.08774 18.7319 9.26118 18.9025 9.59212C17.5089 10.2723 16.2845 11.2116 15.2345 11.8768C14.6781 12.2293 14.1709 12.5021 13.7345 12.6268C13.2981 12.7515 12.9503 12.7309 12.6212 12.5316ZM12.16 15.5968V16.8156L12.6934 17.2445L12.4694 17.5351L12.4825 18.4206L12.8715 18.8495L13.4312 19.3135L13.2625 14.2857L12.8715 14.5463L12.5087 15.5977H12.16V15.5968Z" fill="#F2F2F2"/>
</g>
</svg>
