<svg width="400" height="41" viewBox="0 0 400 41" fill="none" xmlns="http://www.w3.org/2000/svg">
<rect y="0.0375977" width="400" height="40.4965" rx="10" fill="#F90101"/>
<path d="M14.064 14.3125C14.896 12.7876 16.1724 11.5058 17.7504 10.6102C19.3285 9.71468 21.1461 9.24067 23 9.24121C25.695 9.24121 27.959 10.1533 29.69 11.6388L26.823 14.2784C25.786 13.3663 24.468 12.9015 23 12.9015C20.395 12.9015 18.19 14.5214 17.405 16.6962C17.205 17.2485 17.091 17.8375 17.091 18.445C17.091 19.0524 17.205 19.6414 17.405 20.1937C18.191 22.3694 20.395 23.9884 23 23.9884C24.345 23.9884 25.49 23.6616 26.386 23.1094C26.9054 22.7947 27.3501 22.3862 27.6932 21.9088C28.0363 21.4314 28.2706 20.8949 28.382 20.3317H23V16.7717H32.418C32.536 17.3736 32.6 18.0013 32.6 18.6539C32.6 21.4573 31.51 23.8172 29.618 25.4186C27.964 26.825 25.7 27.6487 23 27.6487C21.6866 27.6492 20.386 27.4115 19.1725 26.9491C17.9591 26.4867 16.8565 25.8088 15.9278 24.9541C14.9991 24.0993 14.2625 23.0845 13.7601 21.9677C13.2578 20.8508 12.9995 19.6537 13 18.445C13 16.9595 13.386 15.555 14.064 14.3125Z" fill="#F2F2F2"/>
<path d="M118.323 22.4824V24.082H113.025V22.4824H118.323ZM113.695 14.1289V24.082H111.645V14.1289H113.695ZM117.633 18.1826V19.7412H113.025V18.1826H117.633ZM118.316 14.1289V15.7354H113.025V14.1289H118.316ZM125.524 18.2646V24.082H123.555V16.6855H125.401L125.524 18.2646ZM125.237 20.124H124.704C124.704 19.5771 124.775 19.085 124.916 18.6475C125.057 18.2054 125.255 17.8294 125.511 17.5195C125.766 17.2051 126.069 16.9658 126.42 16.8018C126.775 16.6331 127.172 16.5488 127.609 16.5488C127.956 16.5488 128.272 16.599 128.559 16.6992C128.846 16.7995 129.093 16.959 129.298 17.1777C129.507 17.3965 129.667 17.6859 129.776 18.0459C129.89 18.4059 129.947 18.8457 129.947 19.3652V24.082H127.965V19.3584C127.965 19.0303 127.919 18.7751 127.828 18.5928C127.737 18.4105 127.602 18.2829 127.425 18.21C127.251 18.1325 127.037 18.0938 126.782 18.0938C126.518 18.0938 126.288 18.1462 126.092 18.251C125.9 18.3558 125.741 18.5016 125.613 18.6885C125.49 18.8708 125.397 19.085 125.333 19.3311C125.269 19.5771 125.237 19.8415 125.237 20.124ZM139.267 16.6855V18.0801H134.961V16.6855H139.267ZM136.027 14.8604H137.996V21.8535C137.996 22.0677 138.023 22.2318 138.078 22.3457C138.137 22.4596 138.224 22.5394 138.338 22.585C138.451 22.626 138.595 22.6465 138.768 22.6465C138.891 22.6465 139.001 22.6419 139.096 22.6328C139.197 22.6191 139.281 22.6055 139.349 22.5918L139.356 24.041C139.187 24.0957 139.005 24.139 138.809 24.1709C138.613 24.2028 138.397 24.2188 138.16 24.2188C137.727 24.2188 137.349 24.1481 137.025 24.0068C136.706 23.861 136.46 23.6286 136.287 23.3096C136.114 22.9906 136.027 22.5713 136.027 22.0518V14.8604ZM146.557 18.2988V24.082H144.588V16.6855H146.441L146.557 18.2988ZM148.786 16.6377L148.751 18.4629C148.656 18.4492 148.539 18.4378 148.403 18.4287C148.271 18.415 148.15 18.4082 148.04 18.4082C147.762 18.4082 147.521 18.4447 147.316 18.5176C147.115 18.5859 146.947 18.6885 146.81 18.8252C146.678 18.9619 146.578 19.1283 146.509 19.3242C146.445 19.5202 146.409 19.7435 146.4 19.9941L146.003 19.8711C146.003 19.3926 146.051 18.9528 146.147 18.5518C146.243 18.1462 146.382 17.793 146.564 17.4922C146.751 17.1914 146.979 16.959 147.247 16.7949C147.516 16.6309 147.824 16.5488 148.17 16.5488C148.28 16.5488 148.391 16.5579 148.505 16.5762C148.619 16.5898 148.713 16.6104 148.786 16.6377ZM157.675 22.4141V19.1191C157.675 18.8822 157.636 18.6794 157.559 18.5107C157.481 18.3376 157.361 18.2031 157.196 18.1074C157.037 18.0117 156.83 17.9639 156.574 17.9639C156.356 17.9639 156.167 18.0026 156.007 18.0801C155.848 18.153 155.724 18.2601 155.638 18.4014C155.551 18.5381 155.508 18.6999 155.508 18.8867H153.539C153.539 18.5723 153.612 18.2738 153.758 17.9912C153.904 17.7087 154.116 17.4603 154.394 17.2461C154.672 17.0273 155.002 16.8564 155.385 16.7334C155.772 16.6104 156.205 16.5488 156.684 16.5488C157.258 16.5488 157.768 16.6445 158.215 16.8359C158.662 17.0273 159.013 17.3145 159.268 17.6973C159.528 18.0801 159.657 18.5586 159.657 19.1328V22.2979C159.657 22.7035 159.682 23.0361 159.733 23.2959C159.783 23.5511 159.856 23.7744 159.951 23.9658V24.082H157.962C157.866 23.8815 157.793 23.6309 157.743 23.3301C157.698 23.0247 157.675 22.7194 157.675 22.4141ZM157.935 19.5771L157.948 20.6914H156.848C156.588 20.6914 156.363 20.721 156.171 20.7803C155.98 20.8395 155.822 20.9238 155.699 21.0332C155.576 21.138 155.485 21.2611 155.426 21.4023C155.371 21.5436 155.344 21.6986 155.344 21.8672C155.344 22.0358 155.383 22.1885 155.46 22.3252C155.538 22.4574 155.649 22.5622 155.795 22.6396C155.941 22.7126 156.112 22.749 156.308 22.749C156.604 22.749 156.862 22.6898 157.08 22.5713C157.299 22.4528 157.468 22.307 157.586 22.1338C157.709 21.9606 157.773 21.7965 157.778 21.6416L158.297 22.4756C158.224 22.6624 158.124 22.8561 157.996 23.0566C157.873 23.2572 157.716 23.4463 157.525 23.624C157.333 23.7972 157.103 23.9408 156.834 24.0547C156.565 24.1641 156.246 24.2188 155.877 24.2188C155.408 24.2188 154.982 24.1253 154.599 23.9385C154.221 23.7471 153.92 23.485 153.696 23.1523C153.478 22.8151 153.368 22.4323 153.368 22.0039C153.368 21.6165 153.441 21.2725 153.587 20.9717C153.733 20.6709 153.947 20.418 154.23 20.2129C154.517 20.0033 154.875 19.846 155.303 19.7412C155.731 19.6318 156.228 19.5771 156.793 19.5771H157.935ZM176.117 22.6807C176.359 22.6807 176.573 22.6351 176.76 22.5439C176.946 22.4482 177.092 22.3161 177.197 22.1475C177.306 21.9743 177.363 21.7715 177.368 21.5391H179.221C179.216 22.0586 179.077 22.5212 178.804 22.9268C178.53 23.3278 178.163 23.6445 177.703 23.877C177.243 24.1048 176.728 24.2188 176.158 24.2188C175.584 24.2188 175.082 24.123 174.654 23.9316C174.23 23.7402 173.877 23.4759 173.595 23.1387C173.312 22.7969 173.1 22.4004 172.959 21.9492C172.818 21.4935 172.747 21.0059 172.747 20.4863V20.2881C172.747 19.764 172.818 19.2764 172.959 18.8252C173.1 18.3695 173.312 17.973 173.595 17.6357C173.877 17.2939 174.23 17.0273 174.654 16.8359C175.078 16.6445 175.575 16.5488 176.144 16.5488C176.75 16.5488 177.281 16.665 177.737 16.8975C178.197 17.1299 178.557 17.4626 178.817 17.8955C179.082 18.3239 179.216 18.832 179.221 19.4199H177.368C177.363 19.1738 177.311 18.9505 177.211 18.75C177.115 18.5495 176.974 18.39 176.787 18.2715C176.605 18.1484 176.379 18.0869 176.11 18.0869C175.823 18.0869 175.588 18.1484 175.406 18.2715C175.224 18.39 175.082 18.554 174.982 18.7637C174.882 18.9688 174.811 19.2035 174.77 19.4678C174.734 19.7275 174.716 20.001 174.716 20.2881V20.4863C174.716 20.7734 174.734 21.0492 174.77 21.3135C174.807 21.5778 174.875 21.8125 174.975 22.0176C175.08 22.2227 175.224 22.3844 175.406 22.5029C175.588 22.6214 175.825 22.6807 176.117 22.6807ZM184.248 20.459V20.3154C184.248 19.7731 184.325 19.2741 184.48 18.8184C184.635 18.3581 184.861 17.9593 185.157 17.6221C185.453 17.2848 185.818 17.0228 186.251 16.8359C186.684 16.6445 187.18 16.5488 187.741 16.5488C188.301 16.5488 188.8 16.6445 189.238 16.8359C189.675 17.0228 190.042 17.2848 190.338 17.6221C190.639 17.9593 190.867 18.3581 191.022 18.8184C191.177 19.2741 191.254 19.7731 191.254 20.3154V20.459C191.254 20.9967 191.177 21.4958 191.022 21.9561C190.867 22.4118 190.639 22.8105 190.338 23.1523C190.042 23.4896 189.678 23.7516 189.245 23.9385C188.812 24.1253 188.315 24.2188 187.754 24.2188C187.194 24.2188 186.695 24.1253 186.257 23.9385C185.824 23.7516 185.458 23.4896 185.157 23.1523C184.861 22.8105 184.635 22.4118 184.48 21.9561C184.325 21.4958 184.248 20.9967 184.248 20.459ZM186.216 20.3154V20.459C186.216 20.7689 186.244 21.0583 186.298 21.3271C186.353 21.596 186.44 21.833 186.558 22.0381C186.681 22.2386 186.841 22.3958 187.037 22.5098C187.233 22.6237 187.472 22.6807 187.754 22.6807C188.028 22.6807 188.263 22.6237 188.459 22.5098C188.655 22.3958 188.812 22.2386 188.93 22.0381C189.049 21.833 189.135 21.596 189.19 21.3271C189.249 21.0583 189.279 20.7689 189.279 20.459V20.3154C189.279 20.0146 189.249 19.7321 189.19 19.4678C189.135 19.1989 189.046 18.9619 188.923 18.7568C188.805 18.5472 188.648 18.3831 188.452 18.2646C188.256 18.1462 188.019 18.0869 187.741 18.0869C187.463 18.0869 187.226 18.1462 187.03 18.2646C186.838 18.3831 186.681 18.5472 186.558 18.7568C186.44 18.9619 186.353 19.1989 186.298 19.4678C186.244 19.7321 186.216 20.0146 186.216 20.3154ZM198.592 18.2646V24.082H196.623V16.6855H198.469L198.592 18.2646ZM198.305 20.124H197.772C197.772 19.5771 197.843 19.085 197.984 18.6475C198.125 18.2054 198.323 17.8294 198.579 17.5195C198.834 17.2051 199.137 16.9658 199.488 16.8018C199.843 16.6331 200.24 16.5488 200.677 16.5488C201.024 16.5488 201.34 16.599 201.627 16.6992C201.914 16.7995 202.161 16.959 202.366 17.1777C202.575 17.3965 202.735 17.6859 202.844 18.0459C202.958 18.4059 203.015 18.8457 203.015 19.3652V24.082H201.033V19.3584C201.033 19.0303 200.987 18.7751 200.896 18.5928C200.805 18.4105 200.67 18.2829 200.493 18.21C200.319 18.1325 200.105 18.0938 199.85 18.0938C199.586 18.0938 199.356 18.1462 199.16 18.251C198.968 18.3558 198.809 18.5016 198.681 18.6885C198.558 18.8708 198.465 19.085 198.401 19.3311C198.337 19.5771 198.305 19.8415 198.305 20.124ZM224.41 18.8799V22.8242C224.255 23.0111 224.016 23.2139 223.692 23.4326C223.369 23.6468 222.952 23.8314 222.441 23.9863C221.931 24.1413 221.313 24.2188 220.589 24.2188C219.946 24.2188 219.361 24.1139 218.832 23.9043C218.303 23.6901 217.848 23.3779 217.465 22.9678C217.087 22.5576 216.795 22.0563 216.59 21.4639C216.385 20.8669 216.282 20.1855 216.282 19.4199V18.7979C216.282 18.0322 216.38 17.3509 216.576 16.7539C216.777 16.1569 217.062 15.6533 217.431 15.2432C217.8 14.833 218.24 14.5208 218.75 14.3066C219.26 14.0924 219.828 13.9854 220.452 13.9854C221.318 13.9854 222.029 14.1266 222.585 14.4092C223.141 14.6872 223.565 15.0745 223.856 15.5713C224.153 16.0635 224.335 16.6286 224.403 17.2666H222.414C222.364 16.9294 222.268 16.6354 222.127 16.3848C221.986 16.1341 221.783 15.9382 221.519 15.7969C221.259 15.6556 220.922 15.585 220.507 15.585C220.165 15.585 219.86 15.6556 219.591 15.7969C219.326 15.9336 219.103 16.1364 218.921 16.4053C218.739 16.6742 218.6 17.0068 218.504 17.4033C218.408 17.7998 218.36 18.2601 218.36 18.7842V19.4199C218.36 19.9395 218.41 20.3997 218.511 20.8008C218.611 21.1973 218.759 21.5322 218.955 21.8057C219.156 22.0745 219.402 22.2773 219.693 22.4141C219.985 22.5508 220.325 22.6191 220.712 22.6191C221.035 22.6191 221.304 22.5918 221.519 22.5371C221.737 22.4824 221.913 22.4163 222.045 22.3389C222.182 22.2568 222.286 22.1794 222.359 22.1064V20.3428H220.486V18.8799H224.41ZM229.827 20.459V20.3154C229.827 19.7731 229.904 19.2741 230.059 18.8184C230.214 18.3581 230.44 17.9593 230.736 17.6221C231.032 17.2848 231.397 17.0228 231.83 16.8359C232.263 16.6445 232.76 16.5488 233.32 16.5488C233.881 16.5488 234.38 16.6445 234.817 16.8359C235.255 17.0228 235.622 17.2848 235.918 17.6221C236.219 17.9593 236.446 18.3581 236.601 18.8184C236.756 19.2741 236.834 19.7731 236.834 20.3154V20.459C236.834 20.9967 236.756 21.4958 236.601 21.9561C236.446 22.4118 236.219 22.8105 235.918 23.1523C235.622 23.4896 235.257 23.7516 234.824 23.9385C234.391 24.1253 233.894 24.2188 233.334 24.2188C232.773 24.2188 232.274 24.1253 231.837 23.9385C231.404 23.7516 231.037 23.4896 230.736 23.1523C230.44 22.8105 230.214 22.4118 230.059 21.9561C229.904 21.4958 229.827 20.9967 229.827 20.459ZM231.796 20.3154V20.459C231.796 20.7689 231.823 21.0583 231.878 21.3271C231.932 21.596 232.019 21.833 232.137 22.0381C232.261 22.2386 232.42 22.3958 232.616 22.5098C232.812 22.6237 233.051 22.6807 233.334 22.6807C233.607 22.6807 233.842 22.6237 234.038 22.5098C234.234 22.3958 234.391 22.2386 234.51 22.0381C234.628 21.833 234.715 21.596 234.769 21.3271C234.829 21.0583 234.858 20.7689 234.858 20.459V20.3154C234.858 20.0146 234.829 19.7321 234.769 19.4678C234.715 19.1989 234.626 18.9619 234.503 18.7568C234.384 18.5472 234.227 18.3831 234.031 18.2646C233.835 18.1462 233.598 18.0869 233.32 18.0869C233.042 18.0869 232.805 18.1462 232.609 18.2646C232.418 18.3831 232.261 18.5472 232.137 18.7568C232.019 18.9619 231.932 19.1989 231.878 19.4678C231.823 19.7321 231.796 20.0146 231.796 20.3154ZM241.929 20.459V20.3154C241.929 19.7731 242.007 19.2741 242.162 18.8184C242.317 18.3581 242.542 17.9593 242.838 17.6221C243.135 17.2848 243.499 17.0228 243.932 16.8359C244.365 16.6445 244.862 16.5488 245.422 16.5488C245.983 16.5488 246.482 16.6445 246.92 16.8359C247.357 17.0228 247.724 17.2848 248.02 17.6221C248.321 17.9593 248.549 18.3581 248.704 18.8184C248.859 19.2741 248.936 19.7731 248.936 20.3154V20.459C248.936 20.9967 248.859 21.4958 248.704 21.9561C248.549 22.4118 248.321 22.8105 248.02 23.1523C247.724 23.4896 247.359 23.7516 246.926 23.9385C246.493 24.1253 245.997 24.2188 245.436 24.2188C244.876 24.2188 244.377 24.1253 243.939 23.9385C243.506 23.7516 243.139 23.4896 242.838 23.1523C242.542 22.8105 242.317 22.4118 242.162 21.9561C242.007 21.4958 241.929 20.9967 241.929 20.459ZM243.898 20.3154V20.459C243.898 20.7689 243.925 21.0583 243.98 21.3271C244.035 21.596 244.121 21.833 244.24 22.0381C244.363 22.2386 244.522 22.3958 244.718 22.5098C244.914 22.6237 245.154 22.6807 245.436 22.6807C245.71 22.6807 245.944 22.6237 246.14 22.5098C246.336 22.3958 246.493 22.2386 246.612 22.0381C246.73 21.833 246.817 21.596 246.872 21.3271C246.931 21.0583 246.961 20.7689 246.961 20.459V20.3154C246.961 20.0146 246.931 19.7321 246.872 19.4678C246.817 19.1989 246.728 18.9619 246.605 18.7568C246.487 18.5472 246.329 18.3831 246.133 18.2646C245.937 18.1462 245.7 18.0869 245.422 18.0869C245.144 18.0869 244.907 18.1462 244.712 18.2646C244.52 18.3831 244.363 18.5472 244.24 18.7568C244.121 18.9619 244.035 19.1989 243.98 19.4678C243.925 19.7321 243.898 20.0146 243.898 20.3154ZM259.029 16.6855H260.813V23.8359C260.813 24.5104 260.662 25.0824 260.362 25.5518C260.065 26.0257 259.651 26.3835 259.118 26.625C258.584 26.8711 257.965 26.9941 257.258 26.9941C256.948 26.9941 256.62 26.9531 256.274 26.8711C255.932 26.7891 255.604 26.6615 255.289 26.4883C254.98 26.3151 254.72 26.0964 254.51 25.832L255.378 24.6699C255.606 24.9342 255.87 25.1393 256.171 25.2852C256.472 25.4355 256.805 25.5107 257.169 25.5107C257.525 25.5107 257.826 25.4447 258.072 25.3125C258.318 25.1849 258.507 24.9958 258.639 24.7451C258.771 24.499 258.837 24.2005 258.837 23.8496V18.3945L259.029 16.6855ZM254.052 20.4727V20.3291C254.052 19.764 254.12 19.2513 254.257 18.791C254.398 18.3262 254.597 17.9274 254.852 17.5947C255.112 17.262 255.426 17.0046 255.795 16.8223C256.164 16.64 256.581 16.5488 257.046 16.5488C257.538 16.5488 257.951 16.64 258.284 16.8223C258.616 17.0046 258.89 17.2643 259.104 17.6016C259.318 17.9342 259.484 18.3285 259.603 18.7842C259.726 19.2354 259.822 19.7298 259.89 20.2676V20.582C259.822 21.097 259.719 21.5755 259.582 22.0176C259.446 22.4596 259.266 22.847 259.042 23.1797C258.819 23.5078 258.541 23.763 258.208 23.9453C257.88 24.1276 257.488 24.2188 257.033 24.2188C256.577 24.2188 256.164 24.1253 255.795 23.9385C255.431 23.7516 255.119 23.4896 254.859 23.1523C254.599 22.8151 254.398 22.4186 254.257 21.9629C254.12 21.5072 254.052 21.0104 254.052 20.4727ZM256.021 20.3291V20.4727C256.021 20.778 256.051 21.0628 256.11 21.3271C256.169 21.5915 256.26 21.8262 256.383 22.0312C256.511 22.2318 256.668 22.389 256.855 22.5029C257.046 22.6123 257.272 22.667 257.532 22.667C257.892 22.667 258.186 22.5918 258.413 22.4414C258.641 22.2865 258.812 22.0745 258.926 21.8057C259.04 21.5368 259.106 21.2269 259.124 20.876V19.9805C259.115 19.6934 259.077 19.4359 259.008 19.208C258.94 18.9756 258.844 18.7773 258.721 18.6133C258.598 18.4492 258.439 18.3216 258.243 18.2305C258.047 18.1393 257.814 18.0938 257.545 18.0938C257.286 18.0938 257.06 18.153 256.869 18.2715C256.682 18.3854 256.524 18.5426 256.397 18.7432C256.274 18.9437 256.18 19.1807 256.117 19.4541C256.053 19.723 256.021 20.0146 256.021 20.3291ZM268.622 13.582V24.082H266.647V13.582H268.622ZM277.854 24.2188C277.279 24.2188 276.764 24.1276 276.309 23.9453C275.853 23.7585 275.465 23.501 275.146 23.1729C274.832 22.8447 274.59 22.4642 274.422 22.0312C274.253 21.5938 274.169 21.1289 274.169 20.6367V20.3633C274.169 19.8027 274.249 19.29 274.408 18.8252C274.568 18.3604 274.796 17.957 275.092 17.6152C275.393 17.2734 275.757 17.0114 276.186 16.8291C276.614 16.6423 277.097 16.5488 277.635 16.5488C278.159 16.5488 278.624 16.6354 279.029 16.8086C279.435 16.9818 279.774 17.2279 280.048 17.5469C280.326 17.8659 280.535 18.2487 280.677 18.6953C280.818 19.1374 280.889 19.6296 280.889 20.1719V20.9922H275.01V19.6797H278.954V19.5293C278.954 19.2559 278.904 19.012 278.804 18.7979C278.708 18.5791 278.562 18.4059 278.366 18.2783C278.17 18.1507 277.92 18.0869 277.614 18.0869C277.354 18.0869 277.131 18.1439 276.944 18.2578C276.757 18.3717 276.605 18.5312 276.486 18.7363C276.372 18.9414 276.286 19.1829 276.227 19.4609C276.172 19.7344 276.145 20.0352 276.145 20.3633V20.6367C276.145 20.9329 276.186 21.2064 276.268 21.457C276.354 21.7077 276.475 21.9242 276.63 22.1064C276.789 22.2887 276.981 22.43 277.204 22.5303C277.432 22.6305 277.689 22.6807 277.977 22.6807C278.332 22.6807 278.662 22.6123 278.968 22.4756C279.278 22.3343 279.544 22.1224 279.768 21.8398L280.725 22.8789C280.57 23.1022 280.358 23.3164 280.089 23.5215C279.825 23.7266 279.506 23.8952 279.132 24.0273C278.758 24.1549 278.332 24.2188 277.854 24.2188Z" fill="#F2F2F2"/>
</svg>
