<svg width="400" height="42" viewBox="0 0 400 42" fill="none" xmlns="http://www.w3.org/2000/svg">
<rect y="0.578125" width="400" height="40.4965" rx="10" fill="#3B5998"/>
<path d="M105.947 23.0229V24.6226H100.65V23.0229H105.947ZM101.32 14.6694V24.6226H99.2688V14.6694H101.32ZM105.257 18.7231V20.2817H100.65V18.7231H105.257ZM105.941 14.6694V16.2759H100.65V14.6694H105.941ZM113.148 18.8052V24.6226H111.18V17.2261H113.025L113.148 18.8052ZM112.861 20.6646H112.328C112.328 20.1177 112.399 19.6255 112.54 19.188C112.681 18.7459 112.88 18.37 113.135 18.0601C113.39 17.7456 113.693 17.5063 114.044 17.3423C114.399 17.1737 114.796 17.0894 115.233 17.0894C115.58 17.0894 115.896 17.1395 116.184 17.2397C116.471 17.34 116.717 17.4995 116.922 17.7183C117.132 17.937 117.291 18.2264 117.4 18.5864C117.514 18.9465 117.571 19.3862 117.571 19.9058V24.6226H115.589V19.8989C115.589 19.5708 115.543 19.3156 115.452 19.1333C115.361 18.951 115.227 18.8234 115.049 18.7505C114.876 18.673 114.661 18.6343 114.406 18.6343C114.142 18.6343 113.912 18.6867 113.716 18.7915C113.524 18.8963 113.365 19.0422 113.237 19.229C113.114 19.4113 113.021 19.6255 112.957 19.8716C112.893 20.1177 112.861 20.382 112.861 20.6646ZM126.891 17.2261V18.6206H122.585V17.2261H126.891ZM123.651 15.4009H125.62V22.394C125.62 22.6082 125.647 22.7723 125.702 22.8862C125.761 23.0002 125.848 23.0799 125.962 23.1255C126.076 23.1665 126.219 23.187 126.392 23.187C126.515 23.187 126.625 23.1825 126.721 23.1733C126.821 23.1597 126.905 23.146 126.973 23.1323L126.98 24.5815C126.812 24.6362 126.629 24.6795 126.433 24.7114C126.237 24.7433 126.021 24.7593 125.784 24.7593C125.351 24.7593 124.973 24.6886 124.649 24.5474C124.33 24.4015 124.084 24.1691 123.911 23.8501C123.738 23.5311 123.651 23.1118 123.651 22.5923V15.4009ZM134.181 18.8394V24.6226H132.213V17.2261H134.065L134.181 18.8394ZM136.41 17.1782L136.376 19.0034C136.28 18.9897 136.164 18.9784 136.027 18.9692C135.895 18.9556 135.774 18.9487 135.665 18.9487C135.387 18.9487 135.145 18.9852 134.94 19.0581C134.74 19.1265 134.571 19.229 134.434 19.3657C134.302 19.5024 134.202 19.6688 134.133 19.8647C134.07 20.0607 134.033 20.284 134.024 20.5347L133.628 20.4116C133.628 19.9331 133.675 19.4933 133.771 19.0923C133.867 18.6867 134.006 18.3335 134.188 18.0327C134.375 17.7319 134.603 17.4995 134.872 17.3354C135.141 17.1714 135.448 17.0894 135.795 17.0894C135.904 17.0894 136.016 17.0985 136.129 17.1167C136.243 17.1304 136.337 17.1509 136.41 17.1782ZM145.299 22.9546V19.6597C145.299 19.4227 145.26 19.2199 145.183 19.0513C145.106 18.8781 144.985 18.7437 144.821 18.6479C144.661 18.5522 144.454 18.5044 144.199 18.5044C143.98 18.5044 143.791 18.5431 143.631 18.6206C143.472 18.6935 143.349 18.8006 143.262 18.9419C143.176 19.0786 143.132 19.2404 143.132 19.4272H141.163C141.163 19.1128 141.236 18.8143 141.382 18.5317C141.528 18.2492 141.74 18.0008 142.018 17.7866C142.296 17.5679 142.626 17.397 143.009 17.2739C143.397 17.1509 143.829 17.0894 144.308 17.0894C144.882 17.0894 145.393 17.1851 145.839 17.3765C146.286 17.5679 146.637 17.855 146.892 18.2378C147.152 18.6206 147.282 19.0991 147.282 19.6733V22.8384C147.282 23.244 147.307 23.5767 147.357 23.8364C147.407 24.0916 147.48 24.3149 147.576 24.5063V24.6226H145.586C145.491 24.422 145.418 24.1714 145.368 23.8706C145.322 23.5653 145.299 23.2599 145.299 22.9546ZM145.559 20.1177L145.573 21.2319H144.472C144.212 21.2319 143.987 21.2616 143.795 21.3208C143.604 21.38 143.447 21.4644 143.324 21.5737C143.201 21.6785 143.109 21.8016 143.05 21.9429C142.996 22.0841 142.968 22.2391 142.968 22.4077C142.968 22.5763 143.007 22.729 143.084 22.8657C143.162 22.9979 143.274 23.1027 143.419 23.1802C143.565 23.2531 143.736 23.2896 143.932 23.2896C144.228 23.2896 144.486 23.2303 144.704 23.1118C144.923 22.9933 145.092 22.8475 145.21 22.6743C145.333 22.5011 145.397 22.3371 145.402 22.1821L145.921 23.0161C145.848 23.203 145.748 23.3966 145.621 23.5972C145.497 23.7977 145.34 23.9868 145.149 24.1646C144.957 24.3377 144.727 24.4813 144.458 24.5952C144.19 24.7046 143.871 24.7593 143.501 24.7593C143.032 24.7593 142.606 24.6659 142.223 24.479C141.845 24.2876 141.544 24.0256 141.321 23.6929C141.102 23.3556 140.993 22.9728 140.993 22.5444C140.993 22.1571 141.066 21.813 141.211 21.5122C141.357 21.2114 141.571 20.9585 141.854 20.7534C142.141 20.5438 142.499 20.3866 142.927 20.2817C143.356 20.1724 143.852 20.1177 144.417 20.1177H145.559ZM163.741 23.2212C163.983 23.2212 164.197 23.1756 164.384 23.0845C164.571 22.9888 164.716 22.8566 164.821 22.688C164.931 22.5148 164.988 22.312 164.992 22.0796H166.845C166.84 22.5991 166.701 23.0617 166.428 23.4673C166.154 23.8683 165.787 24.1851 165.327 24.4175C164.867 24.6453 164.352 24.7593 163.782 24.7593C163.208 24.7593 162.707 24.6636 162.278 24.4722C161.854 24.2808 161.501 24.0164 161.219 23.6792C160.936 23.3374 160.724 22.9409 160.583 22.4897C160.442 22.034 160.371 21.5464 160.371 21.0269V20.8286C160.371 20.3045 160.442 19.8169 160.583 19.3657C160.724 18.91 160.936 18.5135 161.219 18.1763C161.501 17.8345 161.854 17.5679 162.278 17.3765C162.702 17.1851 163.199 17.0894 163.769 17.0894C164.375 17.0894 164.906 17.2056 165.361 17.438C165.822 17.6704 166.182 18.0031 166.441 18.436C166.706 18.8644 166.84 19.3726 166.845 19.9604H164.992C164.988 19.7144 164.935 19.491 164.835 19.2905C164.739 19.09 164.598 18.9305 164.411 18.812C164.229 18.689 164.003 18.6274 163.734 18.6274C163.447 18.6274 163.213 18.689 163.03 18.812C162.848 18.9305 162.707 19.0946 162.606 19.3042C162.506 19.5093 162.436 19.744 162.395 20.0083C162.358 20.2681 162.34 20.5415 162.34 20.8286V21.0269C162.34 21.314 162.358 21.5897 162.395 21.854C162.431 22.1183 162.499 22.353 162.6 22.5581C162.704 22.7632 162.848 22.925 163.03 23.0435C163.213 23.1619 163.45 23.2212 163.741 23.2212ZM171.872 20.9995V20.856C171.872 20.3136 171.949 19.8146 172.104 19.3589C172.259 18.8986 172.485 18.4998 172.781 18.1626C173.077 17.8254 173.442 17.5633 173.875 17.3765C174.308 17.1851 174.804 17.0894 175.365 17.0894C175.926 17.0894 176.425 17.1851 176.862 17.3765C177.3 17.5633 177.666 17.8254 177.963 18.1626C178.263 18.4998 178.491 18.8986 178.646 19.3589C178.801 19.8146 178.879 20.3136 178.879 20.856V20.9995C178.879 21.5373 178.801 22.0363 178.646 22.4966C178.491 22.9523 178.263 23.3511 177.963 23.6929C177.666 24.0301 177.302 24.2922 176.869 24.479C176.436 24.6659 175.939 24.7593 175.379 24.7593C174.818 24.7593 174.319 24.6659 173.882 24.479C173.449 24.2922 173.082 24.0301 172.781 23.6929C172.485 23.3511 172.259 22.9523 172.104 22.4966C171.949 22.0363 171.872 21.5373 171.872 20.9995ZM173.841 20.856V20.9995C173.841 21.3094 173.868 21.5988 173.923 21.8677C173.977 22.1366 174.064 22.3735 174.182 22.5786C174.305 22.7791 174.465 22.9364 174.661 23.0503C174.857 23.1642 175.096 23.2212 175.379 23.2212C175.652 23.2212 175.887 23.1642 176.083 23.0503C176.279 22.9364 176.436 22.7791 176.554 22.5786C176.673 22.3735 176.76 22.1366 176.814 21.8677C176.874 21.5988 176.903 21.3094 176.903 20.9995V20.856C176.903 20.5552 176.874 20.2726 176.814 20.0083C176.76 19.7394 176.671 19.5024 176.548 19.2974C176.429 19.0877 176.272 18.9237 176.076 18.8052C175.88 18.6867 175.643 18.6274 175.365 18.6274C175.087 18.6274 174.85 18.6867 174.654 18.8052C174.463 18.9237 174.305 19.0877 174.182 19.2974C174.064 19.5024 173.977 19.7394 173.923 20.0083C173.868 20.2726 173.841 20.5552 173.841 20.856ZM186.216 18.8052V24.6226H184.248V17.2261H186.093L186.216 18.8052ZM185.929 20.6646H185.396C185.396 20.1177 185.467 19.6255 185.608 19.188C185.749 18.7459 185.948 18.37 186.203 18.0601C186.458 17.7456 186.761 17.5063 187.112 17.3423C187.467 17.1737 187.864 17.0894 188.301 17.0894C188.648 17.0894 188.964 17.1395 189.252 17.2397C189.539 17.34 189.785 17.4995 189.99 17.7183C190.199 17.937 190.359 18.2264 190.468 18.5864C190.582 18.9465 190.639 19.3862 190.639 19.9058V24.6226H188.657V19.8989C188.657 19.5708 188.611 19.3156 188.52 19.1333C188.429 18.951 188.295 18.8234 188.117 18.7505C187.944 18.673 187.729 18.6343 187.474 18.6343C187.21 18.6343 186.98 18.6867 186.784 18.7915C186.592 18.8963 186.433 19.0422 186.305 19.229C186.182 19.4113 186.089 19.6255 186.025 19.8716C185.961 20.1177 185.929 20.382 185.929 20.6646ZM206.196 14.6694V24.6226H204.146V14.6694H206.196ZM210.161 18.9214V20.521H205.636V18.9214H210.161ZM210.64 14.6694V16.2759H205.636V14.6694H210.64ZM219.666 22.9546V19.6597C219.666 19.4227 219.627 19.2199 219.55 19.0513C219.472 18.8781 219.352 18.7437 219.188 18.6479C219.028 18.5522 218.821 18.5044 218.565 18.5044C218.347 18.5044 218.158 18.5431 217.998 18.6206C217.839 18.6935 217.715 18.8006 217.629 18.9419C217.542 19.0786 217.499 19.2404 217.499 19.4272H215.53C215.53 19.1128 215.603 18.8143 215.749 18.5317C215.895 18.2492 216.107 18.0008 216.385 17.7866C216.663 17.5679 216.993 17.397 217.376 17.2739C217.763 17.1509 218.196 17.0894 218.675 17.0894C219.249 17.0894 219.759 17.1851 220.206 17.3765C220.653 17.5679 221.004 17.855 221.259 18.2378C221.519 18.6206 221.648 19.0991 221.648 19.6733V22.8384C221.648 23.244 221.674 23.5767 221.724 23.8364C221.774 24.0916 221.847 24.3149 221.942 24.5063V24.6226H219.953C219.857 24.422 219.785 24.1714 219.734 23.8706C219.689 23.5653 219.666 23.2599 219.666 22.9546ZM219.926 20.1177L219.939 21.2319H218.839C218.579 21.2319 218.354 21.2616 218.162 21.3208C217.971 21.38 217.813 21.4644 217.69 21.5737C217.567 21.6785 217.476 21.8016 217.417 21.9429C217.362 22.0841 217.335 22.2391 217.335 22.4077C217.335 22.5763 217.374 22.729 217.451 22.8657C217.529 22.9979 217.64 23.1027 217.786 23.1802C217.932 23.2531 218.103 23.2896 218.299 23.2896C218.595 23.2896 218.853 23.2303 219.071 23.1118C219.29 22.9933 219.459 22.8475 219.577 22.6743C219.7 22.5011 219.764 22.3371 219.769 22.1821L220.288 23.0161C220.215 23.203 220.115 23.3966 219.987 23.5972C219.864 23.7977 219.707 23.9868 219.516 24.1646C219.324 24.3377 219.094 24.4813 218.825 24.5952C218.556 24.7046 218.237 24.7593 217.868 24.7593C217.399 24.7593 216.973 24.6659 216.59 24.479C216.212 24.2876 215.911 24.0256 215.688 23.6929C215.469 23.3556 215.359 22.9728 215.359 22.5444C215.359 22.1571 215.432 21.813 215.578 21.5122C215.724 21.2114 215.938 20.9585 216.221 20.7534C216.508 20.5438 216.866 20.3866 217.294 20.2817C217.722 20.1724 218.219 20.1177 218.784 20.1177H219.926ZM230.422 23.2212C230.663 23.2212 230.877 23.1756 231.064 23.0845C231.251 22.9888 231.397 22.8566 231.502 22.688C231.611 22.5148 231.668 22.312 231.673 22.0796H233.525C233.521 22.5991 233.382 23.0617 233.108 23.4673C232.835 23.8683 232.468 24.1851 232.008 24.4175C231.547 24.6453 231.032 24.7593 230.463 24.7593C229.888 24.7593 229.387 24.6636 228.959 24.4722C228.535 24.2808 228.182 24.0164 227.899 23.6792C227.617 23.3374 227.405 22.9409 227.263 22.4897C227.122 22.034 227.052 21.5464 227.052 21.0269V20.8286C227.052 20.3045 227.122 19.8169 227.263 19.3657C227.405 18.91 227.617 18.5135 227.899 18.1763C228.182 17.8345 228.535 17.5679 228.959 17.3765C229.383 17.1851 229.879 17.0894 230.449 17.0894C231.055 17.0894 231.586 17.2056 232.042 17.438C232.502 17.6704 232.862 18.0031 233.122 18.436C233.386 18.8644 233.521 19.3726 233.525 19.9604H231.673C231.668 19.7144 231.616 19.491 231.515 19.2905C231.42 19.09 231.278 18.9305 231.092 18.812C230.909 18.689 230.684 18.6274 230.415 18.6274C230.128 18.6274 229.893 18.689 229.711 18.812C229.528 18.9305 229.387 19.0946 229.287 19.3042C229.187 19.5093 229.116 19.744 229.075 20.0083C229.039 20.2681 229.02 20.5415 229.02 20.8286V21.0269C229.02 21.314 229.039 21.5897 229.075 21.854C229.111 22.1183 229.18 22.353 229.28 22.5581C229.385 22.7632 229.528 22.925 229.711 23.0435C229.893 23.1619 230.13 23.2212 230.422 23.2212ZM242.271 24.7593C241.697 24.7593 241.182 24.6681 240.726 24.4858C240.27 24.299 239.883 24.0415 239.564 23.7134C239.25 23.3853 239.008 23.0047 238.839 22.5718C238.671 22.1343 238.587 21.6694 238.587 21.1772V20.9038C238.587 20.3433 238.666 19.8306 238.826 19.3657C238.985 18.9009 239.213 18.4976 239.509 18.1558C239.81 17.814 240.175 17.5519 240.603 17.3696C241.032 17.1828 241.515 17.0894 242.052 17.0894C242.576 17.0894 243.041 17.1759 243.447 17.3491C243.852 17.5223 244.192 17.7684 244.465 18.0874C244.743 18.4064 244.953 18.7892 245.094 19.2358C245.236 19.6779 245.306 20.1701 245.306 20.7124V21.5327H239.427V20.2202H243.372V20.0698C243.372 19.7964 243.322 19.5526 243.221 19.3384C243.126 19.1196 242.98 18.9465 242.784 18.8188C242.588 18.6912 242.337 18.6274 242.032 18.6274C241.772 18.6274 241.549 18.6844 241.362 18.7983C241.175 18.9123 241.022 19.0718 240.904 19.2769C240.79 19.4819 240.703 19.7235 240.644 20.0015C240.589 20.2749 240.562 20.5757 240.562 20.9038V21.1772C240.562 21.4735 240.603 21.7469 240.685 21.9976C240.772 22.2482 240.893 22.4647 241.047 22.647C241.207 22.8293 241.398 22.9705 241.622 23.0708C241.85 23.1711 242.107 23.2212 242.394 23.2212C242.75 23.2212 243.08 23.1528 243.385 23.0161C243.695 22.8748 243.962 22.6629 244.185 22.3804L245.142 23.4194C244.987 23.6427 244.775 23.8569 244.506 24.062C244.242 24.2671 243.923 24.4357 243.549 24.5679C243.176 24.6955 242.75 24.7593 242.271 24.7593ZM250.627 14.1226H252.596V22.9272L252.398 24.6226H250.627V14.1226ZM257.279 20.8491V20.9927C257.279 21.5441 257.219 22.05 257.101 22.5103C256.987 22.9705 256.809 23.3693 256.568 23.7065C256.326 24.0392 256.025 24.299 255.665 24.4858C255.31 24.6681 254.891 24.7593 254.408 24.7593C253.956 24.7593 253.565 24.6681 253.232 24.4858C252.904 24.3035 252.628 24.0461 252.405 23.7134C252.181 23.3807 252.001 22.991 251.865 22.5444C251.728 22.0978 251.625 21.6102 251.557 21.0815V20.7671C251.625 20.2384 251.728 19.7508 251.865 19.3042C252.001 18.8576 252.181 18.4679 252.405 18.1353C252.628 17.8026 252.904 17.5451 253.232 17.3628C253.56 17.1805 253.947 17.0894 254.394 17.0894C254.882 17.0894 255.305 17.1828 255.665 17.3696C256.03 17.5519 256.331 17.8117 256.568 18.1489C256.809 18.4816 256.987 18.8781 257.101 19.3384C257.219 19.7941 257.279 20.2977 257.279 20.8491ZM255.31 20.9927V20.8491C255.31 20.5483 255.287 20.2658 255.242 20.0015C255.201 19.7326 255.128 19.4979 255.023 19.2974C254.918 19.0923 254.774 18.9305 254.592 18.812C254.414 18.6935 254.184 18.6343 253.902 18.6343C253.633 18.6343 253.405 18.6799 253.218 18.771C253.031 18.8621 252.876 18.9897 252.753 19.1538C252.635 19.3179 252.546 19.5138 252.487 19.7417C252.427 19.965 252.391 20.2111 252.377 20.48V21.3755C252.391 21.7355 252.45 22.0545 252.555 22.3325C252.664 22.606 252.829 22.8224 253.047 22.9819C253.271 23.1369 253.56 23.2144 253.915 23.2144C254.193 23.2144 254.424 23.1597 254.606 23.0503C254.788 22.9409 254.929 22.786 255.03 22.5854C255.135 22.3849 255.207 22.1502 255.248 21.8813C255.289 21.6079 255.31 21.3117 255.31 20.9927ZM262.388 20.9995V20.856C262.388 20.3136 262.465 19.8146 262.62 19.3589C262.775 18.8986 263.001 18.4998 263.297 18.1626C263.593 17.8254 263.958 17.5633 264.391 17.3765C264.824 17.1851 265.321 17.0894 265.881 17.0894C266.442 17.0894 266.941 17.1851 267.378 17.3765C267.816 17.5633 268.182 17.8254 268.479 18.1626C268.779 18.4998 269.007 18.8986 269.162 19.3589C269.317 19.8146 269.395 20.3136 269.395 20.856V20.9995C269.395 21.5373 269.317 22.0363 269.162 22.4966C269.007 22.9523 268.779 23.3511 268.479 23.6929C268.182 24.0301 267.818 24.2922 267.385 24.479C266.952 24.6659 266.455 24.7593 265.895 24.7593C265.334 24.7593 264.835 24.6659 264.398 24.479C263.965 24.2922 263.598 24.0301 263.297 23.6929C263.001 23.3511 262.775 22.9523 262.62 22.4966C262.465 22.0363 262.388 21.5373 262.388 20.9995ZM264.357 20.856V20.9995C264.357 21.3094 264.384 21.5988 264.439 21.8677C264.493 22.1366 264.58 22.3735 264.698 22.5786C264.821 22.7791 264.981 22.9364 265.177 23.0503C265.373 23.1642 265.612 23.2212 265.895 23.2212C266.168 23.2212 266.403 23.1642 266.599 23.0503C266.795 22.9364 266.952 22.7791 267.071 22.5786C267.189 22.3735 267.276 22.1366 267.33 21.8677C267.39 21.5988 267.419 21.3094 267.419 20.9995V20.856C267.419 20.5552 267.39 20.2726 267.33 20.0083C267.276 19.7394 267.187 19.5024 267.064 19.2974C266.945 19.0877 266.788 18.9237 266.592 18.8052C266.396 18.6867 266.159 18.6274 265.881 18.6274C265.603 18.6274 265.366 18.6867 265.17 18.8052C264.979 18.9237 264.821 19.0877 264.698 19.2974C264.58 19.5024 264.493 19.7394 264.439 20.0083C264.384 20.2726 264.357 20.5552 264.357 20.856ZM274.49 20.9995V20.856C274.49 20.3136 274.568 19.8146 274.723 19.3589C274.878 18.8986 275.103 18.4998 275.399 18.1626C275.696 17.8254 276.06 17.5633 276.493 17.3765C276.926 17.1851 277.423 17.0894 277.983 17.0894C278.544 17.0894 279.043 17.1851 279.48 17.3765C279.918 17.5633 280.285 17.8254 280.581 18.1626C280.882 18.4998 281.11 18.8986 281.265 19.3589C281.42 19.8146 281.497 20.3136 281.497 20.856V20.9995C281.497 21.5373 281.42 22.0363 281.265 22.4966C281.11 22.9523 280.882 23.3511 280.581 23.6929C280.285 24.0301 279.92 24.2922 279.487 24.479C279.054 24.6659 278.558 24.7593 277.997 24.7593C277.437 24.7593 276.938 24.6659 276.5 24.479C276.067 24.2922 275.7 24.0301 275.399 23.6929C275.103 23.3511 274.878 22.9523 274.723 22.4966C274.568 22.0363 274.49 21.5373 274.49 20.9995ZM276.459 20.856V20.9995C276.459 21.3094 276.486 21.5988 276.541 21.8677C276.596 22.1366 276.682 22.3735 276.801 22.5786C276.924 22.7791 277.083 22.9364 277.279 23.0503C277.475 23.1642 277.715 23.2212 277.997 23.2212C278.271 23.2212 278.505 23.1642 278.701 23.0503C278.897 22.9364 279.054 22.7791 279.173 22.5786C279.291 22.3735 279.378 22.1366 279.433 21.8677C279.492 21.5988 279.521 21.3094 279.521 20.9995V20.856C279.521 20.5552 279.492 20.2726 279.433 20.0083C279.378 19.7394 279.289 19.5024 279.166 19.2974C279.048 19.0877 278.89 18.9237 278.694 18.8052C278.498 18.6867 278.261 18.6274 277.983 18.6274C277.705 18.6274 277.468 18.6867 277.272 18.8052C277.081 18.9237 276.924 19.0877 276.801 19.2974C276.682 19.5024 276.596 19.7394 276.541 20.0083C276.486 20.2726 276.459 20.5552 276.459 20.856ZM288.876 14.1157V24.6226H286.907V14.1157H288.876ZM293.538 17.2261L290.325 20.8901L288.602 22.6333L287.885 21.2114L289.252 19.4751L291.173 17.2261H293.538ZM291.494 24.6226L289.306 21.2046L290.667 20.0151L293.763 24.6226H291.494Z" fill="#F2F2F2"/>
<path d="M34 20.8263C34 15.7458 29.52 11.6226 24 11.6226C18.48 11.6226 14 15.7458 14 20.8263C14 25.2809 17.44 28.99 22 29.846V23.5874H20V20.8263H22V18.5254C22 16.749 23.57 15.3041 25.5 15.3041H28V18.0652H26C25.45 18.0652 25 18.4793 25 18.9856V20.8263H28V23.5874H25V29.984C30.05 29.5238 34 25.603 34 20.8263Z" fill="#F2F2F2"/>
</svg>
