<svg width="24" height="23" viewBox="0 0 24 23" fill="none" xmlns="http://www.w3.org/2000/svg">
<g id="google-btn">
<path id="Vector" d="M3.064 7.31248C3.89601 5.78764 5.17237 4.5058 6.75043 3.61024C8.32849 2.71468 10.1461 2.24067 12 2.24121C14.695 2.24121 16.959 3.1533 18.69 4.63879L15.823 7.27842C14.786 6.36633 13.468 5.90154 12 5.90154C9.395 5.90154 7.19 7.5214 6.405 9.69625C6.205 10.2485 6.091 10.8375 6.091 11.445C6.091 12.0524 6.205 12.6414 6.405 13.1937C7.191 15.3694 9.395 16.9884 12 16.9884C13.345 16.9884 14.49 16.6616 15.386 16.1094C15.9054 15.7947 16.3501 15.3862 16.6932 14.9088C17.0363 14.4314 17.2706 13.8949 17.382 13.3317H12V9.77172H21.418C21.536 10.3736 21.6 11.0013 21.6 11.6539C21.6 14.4573 20.51 16.8172 18.618 18.4186C16.964 19.825 14.7 20.6487 12 20.6487C10.6866 20.6492 9.38604 20.4115 8.17254 19.9491C6.95905 19.4867 5.85645 18.8088 4.92776 17.9541C3.99907 17.0993 3.2625 16.0845 2.76013 14.9677C2.25777 13.8508 1.99948 12.6537 2 11.445C2 9.95947 2.386 8.55498 3.064 7.31248Z" fill="#F2F2F2"/>
</g>
</svg>
